<svg id="Capa_1" enable-background="new 0 0 511.542 511.542" height="512" viewBox="0 0 511.542 511.542" width="512" xmlns="http://www.w3.org/2000/svg"><g><g><g><g id="XMLID_132_"><g><path d="m255.771 41.697c-65.5 0-118.6 53.1-118.6 118.6 0 29.51 10.78 56.5 28.61 77.25l89.99 23.302 89.99-23.302c17.83-20.75 28.61-47.74 28.61-77.25 0-65.5-53.1-118.6-118.6-118.6z" fill="#badafb"/><path d="m178.211 160.791c0-51.551 28.981-96.326 71.534-118.943-62.699 3.139-112.573 54.97-112.573 118.448 0 29.51 10.78 56.5 28.61 77.25l45.69 11.831c-20.709-23.673-33.261-54.662-33.261-88.586z" fill="#97c9f9"/><path d="m345.761 237.547c-21.75 25.32-54 41.35-89.99 41.35s-68.24-16.03-89.99-41.35c14.59-20.32 34.77-35.95 58.09-44.99 1.31-.51 2.04-1.73 2.04-2.98 0-.81-.31-1.63-.97-2.27l-4.04-3.92c-24.56-23.8-18.57-64.67 11.79-80.43 7.24-3.75 15.16-5.63 23.08-5.63s15.84 1.88 23.08 5.63c17.62 9.14 27.03 26.74 27.03 44.55 0 12.89-4.93 25.89-15.24 35.88l-4.04 3.92c-1.66 1.61-1.1 4.41 1.07 5.25 11.66 4.52 22.54 10.69 32.32 18.27 9.78 7.57 18.48 16.56 25.77 26.72z" fill="#f8f7f8"/></g></g><path d="m430.988 469.845h-350.434c-40.347 0-73.054-32.707-73.054-73.054 0-40.346 32.707-73.054 73.054-73.054h350.435c40.346 0 73.054 32.707 73.054 73.054-.001 40.346-32.708 73.054-73.055 73.054z" fill="#f8f7f8"/><g fill="#efedee"><path d="m77.342 400.718v-7.855c0-32.076 20.682-59.303 49.43-69.126h-46.218c-40.346 0-73.054 32.707-73.054 73.054 0 40.346 32.707 73.054 73.054 73.054h46.218c-28.748-9.824-49.43-37.051-49.43-69.127z"/><circle cx="255.771" cy="396.791" r="16.653"/><circle cx="177.534" cy="396.791" r="16.653"/><circle cx="99.298" cy="396.791" r="16.653"/><circle cx="334.008" cy="396.791" r="16.653"/><circle cx="412.244" cy="396.791" r="16.653"/></g></g><path d="m188.744 213.079c-8.64 7.087-16.376 15.294-22.963 24.468 20.106 23.406 49.194 38.874 81.905 41.079-26.276-14.561-47.177-37.66-58.942-65.547z" fill="#efedee"/></g><g><path d="m165.695 225.457c-10.92-15.092-18.161-33.106-20.338-52.823-.455-4.117-4.164-7.087-8.278-6.631-4.117.455-7.086 4.161-6.631 8.278 7.058 63.916 60.935 112.115 125.323 112.115 69.531 0 126.099-56.567 126.099-126.099s-56.568-126.1-126.099-126.1c-30.185 0-59.389 10.833-82.233 30.504-22.599 19.459-37.616 46.313-42.284 75.614-.651 4.09 2.136 7.935 6.227 8.586 4.084.646 7.935-2.136 8.586-6.227 4.11-25.803 17.342-49.458 37.258-66.607 20.124-17.328 45.852-26.871 72.445-26.871 61.26 0 111.099 49.839 111.099 111.1 0 24.273-7.831 46.749-21.09 65.046-13.36-16.026-30.152-28.734-49.252-37.226 17.28-17.298 21.76-43.601 11.11-65.76-1.794-3.733-6.275-5.305-10.008-3.511s-5.306 6.275-3.511 10.008c7.984 16.615 4.489 36.367-8.698 49.15l-4.036 3.912c-2.627 2.546-3.761 6.207-3.035 9.792s3.196 6.515 6.607 7.838c20.124 7.803 37.646 20.727 51.031 37.537-20.237 21.132-48.716 34.312-80.217 34.312-31.419 0-59.992-13.029-80.295-34.215 13.395-16.858 30.946-29.817 51.109-37.635 3.41-1.323 5.88-4.253 6.606-7.838.727-3.585-.408-7.246-3.034-9.791l-4.036-3.913c-9.953-9.648-14.508-23.047-12.499-36.761 2.009-13.715 10.217-25.244 22.52-31.631 12.147-6.306 26.694-6.368 38.911-.165 3.693 1.875 8.207.402 10.083-3.292 1.875-3.693.401-8.208-3.292-10.083-16.518-8.386-36.186-8.302-52.614.227-16.634 8.636-27.732 24.225-30.449 42.769-2.671 18.235 3.239 36.056 16.232 49.049-19.138 8.512-35.946 21.266-49.317 37.342z"/><path d="m430.988 316.237h-350.434c-44.418 0-80.554 36.136-80.554 80.554 0 44.417 36.136 80.554 80.554 80.554h277.835c4.142 0 7.5-3.358 7.5-7.5s-3.358-7.5-7.5-7.5h-277.835c-36.147-.001-65.554-29.408-65.554-65.555s29.407-65.554 65.554-65.554h350.435c36.146 0 65.554 29.407 65.554 65.554 0 36.146-29.407 65.554-65.554 65.554h-40.637c-4.142 0-7.5 3.358-7.5 7.5s3.358 7.5 7.5 7.5h40.637c44.417 0 80.554-36.136 80.554-80.554-.001-44.417-36.137-80.553-80.555-80.553z"/><path d="m231.618 396.791c0 13.318 10.835 24.153 24.153 24.153s24.153-10.835 24.153-24.153-10.835-24.153-24.153-24.153-24.153 10.834-24.153 24.153zm33.306 0c0 5.047-4.106 9.153-9.153 9.153s-9.153-4.106-9.153-9.153 4.106-9.153 9.153-9.153 9.153 4.105 9.153 9.153z"/><path d="m153.381 396.791c0 13.318 10.835 24.153 24.153 24.153s24.153-10.835 24.153-24.153-10.835-24.153-24.153-24.153c-13.318-.001-24.153 10.834-24.153 24.153zm33.307 0c0 5.047-4.106 9.153-9.153 9.153s-9.153-4.106-9.153-9.153 4.106-9.153 9.153-9.153c5.047-.001 9.153 4.105 9.153 9.153z"/><path d="m75.145 396.791c0 13.318 10.835 24.153 24.153 24.153s24.153-10.835 24.153-24.153-10.835-24.153-24.153-24.153c-13.318-.001-24.153 10.834-24.153 24.153zm33.306 0c0 5.047-4.106 9.153-9.153 9.153s-9.153-4.106-9.153-9.153 4.106-9.153 9.153-9.153c5.047-.001 9.153 4.105 9.153 9.153z"/><path d="m309.854 396.791c0 13.318 10.835 24.153 24.153 24.153s24.153-10.835 24.153-24.153-10.835-24.153-24.153-24.153c-13.318-.001-24.153 10.834-24.153 24.153zm33.307 0c0 5.047-4.106 9.153-9.153 9.153s-9.153-4.106-9.153-9.153 4.106-9.153 9.153-9.153c5.047-.001 9.153 4.105 9.153 9.153z"/><path d="m412.244 420.944c13.318 0 24.153-10.835 24.153-24.153s-10.835-24.153-24.153-24.153-24.153 10.835-24.153 24.153 10.835 24.153 24.153 24.153zm0-33.307c5.047 0 9.153 4.106 9.153 9.153s-4.106 9.153-9.153 9.153-9.153-4.106-9.153-9.153 4.106-9.153 9.153-9.153z"/></g></g></svg>